<svg xmlns="http://www.w3.org/2000/svg" viewBox="0 0 288.28 133.97"><g id="Layer_2" data-name="Layer 2"><g id="Layer_1-2" data-name="Layer 1"><path d="M50,75.38C52.26,79.27,54,82.09,55.53,85c2.6,4.8,1.72,9.39-2.2,11.92s-8.88,1.26-12-3.38c-1.12-1.64-2.08-3.41-3.12-5.12L35,83.19l-5.4,8.9C26,97.91,21.25,99.75,16.8,97s-5-7.66-1.57-13.57C16.61,81,18,78.62,19.84,75.33c-4,0-7.15.17-10.25,0C3.76,74.93.18,71.75,0,67.06S3.08,59,9,58.4c3.28-.33,6.63-.06,11.1-.06-2.34-4.27-4.21-7.63-6-11-2.21-4.09-1.6-7.79,1.95-10.74,3.82-3.19,8.93-2.28,12.13,2.24,2.39,3.38,4.37,7,6.83,11.05,2.14-3.57,3.94-6.71,5.88-9.77,3.29-5.18,7.83-6.68,12.21-4.16s5.16,7.35,2.15,12.67c-1.62,2.85-3.29,5.67-5.5,9.46,9.74,0,18.48.13,27.2-.18.92,0,2.2-2.54,2.55-4.07C85.34,28.31,100.57,11.14,125.41,3,160.88-8.6,200.82,14.6,208.56,51.26c1.12,5.35,3,7.34,8.6,7,9.76-.52,19.57-.15,29.77-1.21q-2.81-1.76-5.63-3.49c-2-1.23-4-2.35-5.93-3.7-4.3-3.07-5.43-7.85-2.91-11.73s6.95-4.85,11.48-2.23c10.09,5.84,20,12,30,17.94,3.29,2,6.75,3.66,9.9,5.81,5.91,4,5.95,10.93-.13,14.72-13.15,8.18-26.44,16.14-39.77,24-4.48,2.65-9.06,1.57-11.47-2.18-2.5-3.91-1.39-8.79,2.83-11.79,2-1.44,4.25-2.62,6.38-3.92l7.38-4.49a43,43,0,0,0-4.6-.66c-10,0-20,.11-30-.1-3.41-.07-4.46,1.16-5.07,4.43-5.55,29.93-29.8,51.7-58.44,54-32.59,2.6-59-15.19-69.48-45.62a57.42,57.42,0,0,1-1.59-5.78c-1.59-6.95-1.57-6.95-8.88-6.94Zm94.69-58.67A50,50,0,0,0,94.63,67c0,28,22.33,50.78,49.75,50.77s49.88-22.83,50-50.69C194.46,39.59,172,16.77,144.71,16.71Z"/></g></g></svg>